# xmcd
#
# Track frame offsets:
#	150
#	11237
#	27085
#	44037
#	53797
#	67270
#	77422
#	91687
#	107685
#	120980
#	135150
#	147627
#
# Disc length: 2189 seconds
#
# Revision: 0
# Processed by: cddbd v1.4b41PL3 Copyright (c) Steve Scherf et al.
# Submitted via: EZCDDA 4.3.3.2
#
DISCID=9c088b0c
DTITLE=Dale Watson - Christmas Time In Texas
DYEAR=1900
DGENRE=
TTITLE0=Honky Tonk Christmas
TTITLE1=Christmas Love
TTITLE2=Christmas Time In Texas
TTITLE3=Santa Bring Her Back
TTITLE4=Christmas Without An Angel
TTITLE5=Christmas With You
TTITLE6=The Christmas Song
TTITLE7=Hot Texas Christmas Day
TTITLE8=Santa And My Semi
TTITLE9=Christmas In Vegas
TTITLE10=Silver Bells
TTITLE11=You Can Call Me Nick
EXTD=
EXTT0=
EXTT1=
EXTT2=
EXTT3=
EXTT4=
EXTT5=
EXTT6=
EXTT7=
EXTT8=
EXTT9=
EXTT10=
EXTT11=
PLAYORDER=
